<svg width="49" height="829" xmlns="http://www.w3.org/2000/svg" xmlns:xlink="http://www.w3.org/1999/xlink" overflow="hidden"><defs><clipPath id="clip0"><rect x="619" y="0" width="42" height="629"/></clipPath><clipPath id="clip1"><rect x="619" y="0" width="42" height="629"/></clipPath><clipPath id="clip2"><rect x="619" y="720" width="42" height="107"/></clipPath><clipPath id="clip3"><rect x="619" y="720" width="42" height="107"/></clipPath></defs><g transform="translate(-614 1)"><g clip-path="url(#clip0)"><g clip-path="url(#clip1)"><g><text font-family="Arial,Arial_MSFontService,Arial" font-weight="700" font-size="64" transform="matrix(-5.59078e-17 -0.296993 0.304348 -5.45567e-17 644.003 78)">Source</text><text font-family="Arial,Arial_MSFontService,Arial" font-weight="700" font-size="64" transform="matrix(-5.59078e-17 -0.296993 0.304348 -5.45567e-17 643.201 172)">TAV</text><text font-family="Arial,Arial_MSFontService,Arial" font-weight="700" font-size="64" transform="matrix(-5.59078e-17 -0.296993 0.304348 -5.45567e-17 643.201 299)">MasaCtrl</text><text font-family="Arial,Arial_MSFontService,Arial" font-weight="700" font-size="64" transform="matrix(-5.59078e-17 -0.296993 0.304348 -5.45567e-17 643.201 220)">*</text><text font-family="Arial,Arial_MSFontService,Arial" font-weight="700" font-size="64" transform="matrix(-5.59078e-17 -0.296993 0.304348 -5.45567e-17 643.201 397)">FateZero</text><text font-family="Arial,Arial_MSFontService,Arial" font-weight="700" font-size="64" transform="matrix(-5.59078e-17 -0.296993 0.304348 -5.45567e-17 643.201 511)">TokenFlow</text><text font-family="Arial,Arial_MSFontService,Arial" font-weight="700" font-size="64" transform="matrix(-5.59078e-17 -0.296993 0.304348 -5.45567e-17 643.201 606)">Rerender</text><text font-family="Arial,Arial_MSFontService,Arial" font-weight="700" font-size="64" transform="matrix(-5.59078e-17 -0.296993 0.304348 -5.45567e-17 643.201 702)">UniEdit</text></g></g></g><g clip-path="url(#clip2)"><g clip-path="url(#clip3)"><g><text font-family="Arial,Arial_MSFontService,Arial" font-weight="700" font-size="64" transform="matrix(-5.59078e-17 -0.297095 0.304348 -5.45754e-17 644.003 185)">Source</text><text font-family="Arial,Arial_MSFontService,Arial" font-weight="700" font-size="64" transform="matrix(-5.59078e-17 -0.297095 0.304348 -5.45754e-17 643.201 279)">TAV</text><text font-family="Arial,Arial_MSFontService,Arial" font-weight="700" font-size="64" transform="matrix(-5.59078e-17 -0.297095 0.304348 -5.45754e-17 643.201 407)">MasaCtrl</text><text font-family="Arial,Arial_MSFontService,Arial" font-weight="700" font-size="64" transform="matrix(-5.59078e-17 -0.297095 0.304348 -5.45754e-17 643.201 327)">*</text><text font-family="Arial,Arial_MSFontService,Arial" font-weight="700" font-size="64" transform="matrix(-5.59078e-17 -0.297095 0.304348 -5.45754e-17 643.201 504)">FateZero</text><text font-family="Arial,Arial_MSFontService,Arial" font-weight="700" font-size="64" transform="matrix(-5.59078e-17 -0.297095 0.304348 -5.45754e-17 643.201 618)">TokenFlow</text><text font-family="Arial,Arial_MSFontService,Arial" font-weight="700" font-size="64" transform="matrix(-5.59078e-17 -0.297095 0.304348 -5.45754e-17 643.201 713)">Rerender</text><text font-family="Arial,Arial_MSFontService,Arial" font-weight="700" font-size="64" transform="matrix(-5.59078e-17 -0.297095 0.304348 -5.45754e-17 643.201 809)">UniEdit</text></g></g></g><text font-family="Calibri,Calibri_MSFontService,Arial" font-weight="700" font-size="23" transform="matrix(-1.83697e-16 -1 1 -1.83697e-16 642.376 713)">ReVideo</text></g></svg>