<svg width="138" height="2423" xmlns="http://www.w3.org/2000/svg" xmlns:xlink="http://www.w3.org/1999/xlink" xml:space="preserve" overflow="hidden"><g transform="translate(-692 -26)"><text font-family="Linux Libertine,Linux Libertine_MSFontService,sans-serif" font-weight="700" font-size="64" transform="matrix(-1.83697e-16 -1 1 -1.83697e-16 774.151 289)">Source</text><text font-family="Linux Libertine,Linux Libertine_MSFontService,sans-serif" font-weight="700" font-size="64" transform="matrix(-1.83697e-16 -1 1 -1.83697e-16 771.517 605)">TAV</text><text font-family="Linux Libertine,Linux Libertine_MSFontService,sans-serif" font-weight="700" font-size="64" transform="matrix(-1.83697e-16 -1 1 -1.83697e-16 771.517 1034)">MasaCtrl</text><text font-family="Linux Libertine,Linux Libertine_MSFontService,sans-serif" font-weight="700" font-size="64" transform="matrix(-1.83697e-16 -1 1 -1.83697e-16 771.517 766)">*</text><text font-family="Linux Libertine,Linux Libertine_MSFontService,sans-serif" font-weight="700" font-size="64" transform="matrix(-1.83697e-16 -1 1 -1.83697e-16 771.517 1362)">FateZero</text><text font-family="Linux Libertine,Linux Libertine_MSFontService,sans-serif" font-weight="700" font-size="64" transform="matrix(-1.83697e-16 -1 1 -1.83697e-16 771.517 1746)">TokenFlow</text><text font-family="Linux Libertine,Linux Libertine_MSFontService,sans-serif" font-weight="700" font-size="64" transform="matrix(-1.83697e-16 -1 1 -1.83697e-16 771.517 2065)">Rerender</text><text font-family="Linux Libertine,Linux Libertine_MSFontService,sans-serif" font-weight="700" font-size="64" transform="matrix(-1.83697e-16 -1 1 -1.83697e-16 771.518 2390)">UniEdit</text></g></svg>